<svg xmlns="http://www.w3.org/2000/svg" width="1706.667" height="1706.667" preserveAspectRatio="xMidYMid meet" version="1.0" viewBox="0 0 1280 1280"><metadata>Created by potrace 1.15, written by Peter Selinger 2001-2017</metadata><g fill="#000" stroke="none"><path d="M3137 9659 l-537 -539 1360 -1360 1360 -1360 -1360 -1360 -1360 -1360 540 -540 540 -540 1360 1360 1360 1360 1360 -1360 1360 -1360 540 540 540 540 -1360 1360 -1360 1360 1360 1360 1360 1360 -540 540 -540 540 -1360 -1360 -1360 -1360 -1360 1360 c-748 748 -1361 1360 -1362 1359 -2 0 -245 -243 -541 -540z" transform="translate(0.000000,1280.000000) scale(0.100000,-0.100000)"/></g></svg>