<?xml version="1.0" standalone="no"?>
<!DOCTYPE svg PUBLIC "-//W3C//DTD SVG 20010904//EN"
 "http://www.w3.org/TR/2001/REC-SVG-20010904/DTD/svg10.dtd">
<svg version="1.0" xmlns="http://www.w3.org/2000/svg"
 width="1280.000000pt" height="1280.000000pt" viewBox="0 0 1280.000000 1280.000000"
 preserveAspectRatio="xMidYMid meet">
<metadata>
Created by potrace 1.15, written by Peter Selinger 2001-2017
</metadata>
<g transform="translate(0.000000,1280.000000) scale(0.100000,-0.100000)"
fill="#000000" stroke="none">
<path d="M3137 9659 l-537 -539 1360 -1360 1360 -1360 -1360 -1360 -1360
-1360 540 -540 540 -540 1360 1360 1360 1360 1360 -1360 1360 -1360 540 540
540 540 -1360 1360 -1360 1360 1360 1360 1360 1360 -540 540 -540 540 -1360
-1360 -1360 -1360 -1360 1360 c-748 748 -1361 1360 -1362 1359 -2 0 -245 -243
-541 -540z"/>
</g>
</svg>
